<?xml version="1.0" ?><!DOCTYPE svg  PUBLIC '-//W3C//DTD SVG 1.1//EN'  'http://www.w3.org/Graphics/SVG/1.1/DTD/svg11.dtd'><svg enable-background="new 0 0 64 64" height="64px" id="Layer_1" version="1.1" viewBox="0 0 64 64" width="64px" xml:space="preserve" xmlns="http://www.w3.org/2000/svg" xmlns:xlink="http://www.w3.org/1999/xlink"><path d="M32.194,7.106c-13.689,0-24.826,11.137-24.826,24.826c0,13.69,11.137,24.828,24.826,24.828  c13.689,0,24.826-11.138,24.826-24.828C57.021,18.243,45.884,7.106,32.194,7.106z M45.911,30.117v0.001l-7.187,5.2l2.768,8.46  c0.044,0.132,0.067,0.273,0.067,0.417c0,0.739-0.598,1.339-1.337,1.339c-0.294,0-0.564-0.094-0.784-0.253l-7.243-5.239l-7.243,5.239  c-0.22,0.159-0.49,0.253-0.783,0.253c-0.74,0-1.339-0.599-1.339-1.339c0-0.145,0.024-0.285,0.068-0.417l2.769-8.46l-7.187-5.2  v-0.001c-0.336-0.242-0.554-0.637-0.554-1.083c0-0.739,0.598-1.337,1.338-1.337h8.897l2.755-8.421  c0.168-0.547,0.677-0.945,1.28-0.945c0.602,0,1.112,0.398,1.279,0.945l2.755,8.421h8.897c0.739,0,1.338,0.598,1.338,1.337  C46.464,29.48,46.246,29.875,45.911,30.117z"/></svg>